<?xml version="1.0" ?><!DOCTYPE svg  PUBLIC '-//W3C//DTD SVG 1.1//EN'  'http://www.w3.org/Graphics/SVG/1.1/DTD/svg11.dtd'><svg height="6.82666in" style="shape-rendering:geometricPrecision; text-rendering:geometricPrecision; image-rendering:optimizeQuality; fill-rule:evenodd; clip-rule:evenodd" viewBox="0 0 6.82666 6.82666" width="6.82666in" xml:space="preserve" xmlns="http://www.w3.org/2000/svg" xmlns:xlink="http://www.w3.org/1999/xlink"><defs><style type="text/css">
   <![CDATA[
    .fil1 {fill:none}
    .fil0 {fill:black;fill-rule:nonzero}
   ]]>
  </style></defs><g id="Layer_x0020_1"><path class="fil0" d="M2.24248 2.6444l0.362705 1.71038 -6.69291e-005 1.9685e-005c0.00402756,0.0189921 0.0209606,0.0319331 0.0396693,0.0316142l2.68665 0c0.0182717,0 0.0336772,-0.0122795 0.0384016,-0.0290394l0.594657 -1.80319 2.75591e-005 7.87402e-006c0.00689764,-0.0209213 -0.00447244,-0.0434843 -0.0253937,-0.0503819 -0.00535827,-0.00176772 -0.0108307,-0.00233465 -0.0161102,-0.00185039l-2.94226 7.48031e-005 0 3.93701e-006 -0.0821575 0 -0.442091 1.1811e-005 -0.192091 -0.905839c-0.0118543,-0.0559055 -0.0597638,-0.0972165 -0.117508,-0.0972165l-1.1807 0c-0.0660709,0 -0.119681,0.0536102 -0.119681,0.119677 0,0.0660709 0.0536102,0.119677 0.119681,0.119677l1.08381 0 0.145492 0.686091c0.0155748,0.0734685 0.0313622,0.146382 0.0469646,0.219957z"/><path class="fil0" d="M4.94858 4.62309c0.076437,0 0.145638,0.0309843 0.195732,0.0810787 0.0500984,0.0500945 0.0810827,0.119299 0.0810827,0.195728 0,0.0764291 -0.0309882,0.145634 -0.0810827,0.195728 -0.0500945,0.0500945 -0.119303,0.0810787 -0.195732,0.0810787 -0.0764252,0 -0.14563,-0.0309843 -0.19572,-0.0810787 -0.0500984,-0.0500945 -0.0810827,-0.119303 -0.0810827,-0.195728 0,-0.0764291 0.0309843,-0.145634 0.0810827,-0.195728 0.0500906,-0.0500945 0.119295,-0.0810787 0.19572,-0.0810787z"/><path class="fil0" d="M3.09522 4.62309c0.0764291,0 0.145634,0.0309843 0.195728,0.0810787 0.0500945,0.0500945 0.0810787,0.119299 0.0810787,0.195728 0,0.0764291 -0.0309882,0.145634 -0.0810787,0.195728 -0.0500945,0.0500945 -0.119299,0.0810787 -0.195728,0.0810787 -0.0764252,0 -0.145638,-0.0309843 -0.195732,-0.0810787 -0.0500906,-0.0500945 -0.0810787,-0.119299 -0.0810787,-0.195728 0,-0.0764291 0.0309843,-0.145634 0.0810787,-0.195728 0.0500945,-0.0500945 0.119299,-0.0810787 0.195732,-0.0810787z"/></g><rect class="fil1" height="6.82666" width="6.82666"/></svg>